<?xml version="1.0" standalone="no"?>
<!DOCTYPE svg PUBLIC "-//W3C//DTD SVG 20010904//EN"
 "http://www.w3.org/TR/2001/REC-SVG-20010904/DTD/svg10.dtd">
<svg version="1.0" xmlns="http://www.w3.org/2000/svg"
 width="260.000000pt" height="260.000000pt" viewBox="0 0 260.000000 260.000000"
 preserveAspectRatio="xMidYMid meet">
<metadata>
Created by potrace 1.11, written by Peter Selinger 2001-2013
</metadata>
<g transform="translate(0.000000,260.000000) scale(0.100000,-0.100000)"
fill="#000000" stroke="none">
<path d="M217 1983 c-2 -5 -3 -318 -3 -698 l1 -690 141 -3 141 -3 1 293 c0
161 1 303 1 316 1 22 2 22 171 22 l170 0 0 -315 0 -315 139 0 139 0 0 700 0
700 -139 0 -139 0 0 -265 0 -265 -170 0 c-169 0 -170 0 -171 23 0 12 -1 131
-1 265 l-1 242 -138 0 c-76 0 -140 -3 -142 -7z"/>
<path d="M1244 1973 c2 -10 7 -45 11 -78 3 -33 8 -73 10 -90 6 -41 13 -91 19
-145 16 -127 39 -316 55 -445 6 -44 12 -98 15 -120 7 -58 16 -135 22 -175 3
-19 7 -60 10 -90 2 -30 7 -66 9 -80 3 -14 8 -52 11 -85 3 -33 8 -63 11 -68 2
-4 62 -7 132 -7 l127 0 19 97 c11 54 20 100 20 103 2 7 17 83 20 100 9 47 86
414 88 416 1 2 35 -151 75 -339 41 -188 76 -350 78 -359 5 -16 20 -18 135 -18
71 0 129 3 130 8 0 4 2 14 3 22 3 14 7 51 22 185 3 28 12 102 19 165 8 63 17
142 20 175 3 33 8 71 10 85 3 14 7 52 10 85 7 65 14 126 20 165 2 14 6 54 9
90 3 36 8 76 10 90 5 29 23 177 32 268 l6 62 -125 0 -124 0 -2 -65 c-1 -35 -4
-73 -6 -83 -2 -11 -6 -68 -10 -128 -3 -60 -8 -120 -10 -134 -2 -14 -7 -68 -10
-120 -4 -52 -8 -106 -10 -120 -2 -14 -7 -77 -11 -140 -4 -63 -8 -128 -10 -145
-1 -16 -3 -36 -3 -44 -1 -8 -3 -12 -5 -10 -4 4 -66 286 -92 414 -9 46 -18 90
-19 95 -1 3 -5 23 -9 45 -16 82 -5 76 -134 73 l-117 -3 -21 -120 c-12 -66 -34
-187 -49 -270 -15 -82 -29 -166 -32 -185 -3 -19 -9 -39 -15 -45 -6 -7 -9 -7
-7 0 2 8 -12 189 -16 205 -1 3 -5 43 -9 90 -4 47 -9 101 -11 120 -2 19 -7 64
-10 100 -3 36 -8 81 -10 100 -5 46 -13 117 -22 215 -4 44 -8 83 -9 88 -1 4 -2
21 -3 37 l-1 30 -126 0 c-115 0 -125 -1 -120 -17z"/>
</g>
</svg>
